<svg viewBox="-5 -5 35 39" xmlns="http://www.w3.org/2000/svg">
<circle cx="13.5" cy="16" fill="white" r="16" stroke="gray" stroke-width=".35"/>
<circle cx="11.5" cy="13" fill="orange" r="16" stroke="gray" stroke-width=".35"/>
<path d="M12,5.5 A3.5,3.5,0,0,1,15.5,9 A3.5,3.5,0,0,1,12,12.5 A3.5,3.5,0,0,1,8.5,9 A3.5,3.5,0,0,1,12,5.5 M5,8 C5.56,8,6.08,8.15,6.53,8.42 C6.38,9.85,6.8,11.27,7.66,12.38 C7.16,13.34,6.16,14,5,14 A3,3,0,0,1,2,11 A3,3,0,0,1,5,8 M19,8 A3,3,0,0,1,22,11 A3,3,0,0,1,19,14 C17.84,14,16.84,13.34,16.34,12.38 C17.2,11.27,17.62,9.85,17.47,8.42 C17.92,8.15,18.44,8,19,8 M5.5,18.25 C5.5,16.18,8.41,14.5,12,14.5 C15.59,14.5,18.5,16.18,18.5,18.25 V20 H5.5 V18.25 M0,20 V18.5 C0,17.11,1.89,15.94,4.45,15.6 C3.86,16.28,3.5,17.22,3.5,18.25 V20 H0 M24,20 H20.5 V18.25 C20.5,17.22,20.14,16.28,19.55,15.6 C22.11,15.94,24,17.11,24,18.5 V20 z" fill="white"/>
</svg>